<svg width="433" height="62" viewBox="0 0 433 62" fill="none" xmlns="http://www.w3.org/2000/svg">
<path d="M15.4198 52.5629C13.2947 52.5629 11.3821 52.3106 9.68204 51.8059C8.00853 51.3277 6.58737 50.6105 5.41856 49.6542C4.24976 48.7245 3.35988 47.5822 2.74891 46.2275C2.13794 44.8993 1.83246 43.3719 1.83246 41.6453C1.83246 40.4499 1.99184 39.1084 2.31061 37.6208C2.65594 36.1067 3.1208 34.6457 3.7052 33.2378L7.53038 34.3535C6.9991 35.4957 6.57409 36.6513 6.25532 37.8201C5.96312 38.9889 5.81702 39.9983 5.81702 40.8483C5.81702 42.5219 6.52096 43.8102 7.92884 44.7134C9.33671 45.6431 11.3024 46.108 13.826 46.108H17.0136C19.2981 46.108 21.1841 45.829 22.6717 45.2712C24.1858 44.7134 25.2351 43.9297 25.8195 42.9203L16.4159 41.446V35.4692L21.1576 36.1864C22.167 36.3458 23.0702 36.4786 23.8671 36.5849C24.664 36.6911 25.3945 36.7841 26.0586 36.8638C26.7492 36.9169 27.3735 36.9568 27.9313 36.9833C28.5157 37.0099 29.0736 37.0232 29.6048 37.0232V39.5733L30.2822 40.6093C30.2822 42.4953 29.9369 44.1688 29.2462 45.6298C28.5821 47.1174 27.6126 48.3659 26.3375 49.3753C25.0624 50.4113 23.5085 51.1949 21.6756 51.7262C19.8427 52.284 17.7574 52.5629 15.4198 52.5629ZM18.1691 61.1297C17.4785 61.1297 16.9074 60.9172 16.4558 60.4922C16.0308 60.0672 15.8183 59.3898 15.8183 58.4601C15.8183 57.5304 16.0308 56.853 16.4558 56.428C16.9074 56.0029 17.4785 55.7904 18.1691 55.7904H18.9661C19.6567 55.7904 20.2146 56.0029 20.6396 56.428C21.0912 56.853 21.317 57.5304 21.317 58.4601C21.317 59.3898 21.0912 60.0672 20.6396 60.4922C20.2146 60.9172 19.6567 61.1297 18.9661 61.1297H18.1691ZM11.8735 61.1297C11.1829 61.1297 10.6118 60.9172 10.1602 60.4922C9.73517 60.0672 9.52266 59.3898 9.52266 58.4601C9.52266 57.5304 9.73517 56.853 10.1602 56.428C10.6118 56.0029 11.1829 55.7904 11.8735 55.7904H12.6705C13.3611 55.7904 13.919 56.0029 14.344 56.428C14.7956 56.853 15.0213 57.5304 15.0213 58.4601C15.0213 59.3898 14.7956 60.0672 14.344 60.4922C13.919 60.9172 13.3611 61.1297 12.6705 61.1297H11.8735ZM28.4263 38.2185L29.6216 37.0232H32.8093V36.8239C32.278 36.0536 31.8663 35.2301 31.5741 34.3535C31.3084 33.4769 31.1756 32.5339 31.1756 31.5245C31.1756 30.2229 31.4014 29.0009 31.853 27.8587C32.3311 26.7164 32.9687 25.7203 33.7656 24.8703C34.5891 23.9937 35.5453 23.3163 36.6345 22.8381C37.7501 22.3334 38.9588 22.0811 40.2604 22.0811C42.4121 22.0811 44.1653 22.5194 45.52 23.396C46.8748 24.2726 48.0037 25.4679 48.9069 26.9821L44.6434 30.7674C44.059 29.8377 43.3816 29.1603 42.6113 28.7353C41.841 28.2837 40.9245 28.0579 39.862 28.0579C38.3744 28.0579 37.2189 28.3634 36.3954 28.9744C35.5719 29.5588 35.1602 30.4088 35.1602 31.5245C35.1602 32.8792 35.7313 33.9285 36.8735 34.6723C38.0158 35.3895 39.6229 35.7481 41.6948 35.7481C42.3855 35.7481 43.116 35.695 43.8864 35.5887C44.6567 35.4825 45.3606 35.3364 45.9982 35.1504L49.8632 34.0746L51.3773 39.4537L45.52 41.2468C44.3778 41.5921 43.2754 41.8843 42.2128 42.1234C41.1503 42.3359 39.9815 42.5086 38.7064 42.6414C37.4314 42.7742 35.9704 42.8672 34.3234 42.9203C32.6765 42.9734 30.7108 43 28.4263 43V38.2185ZM62.6661 43C59.9831 43 57.9909 42.3625 56.6892 41.0874C55.3876 39.8124 54.7368 37.7404 54.7368 34.8715V13.5143H59.5183V34.0746C59.5183 35.27 59.7573 36.0669 60.2355 36.4653C60.7136 36.8372 61.5371 37.0232 62.7059 37.0232H63.9013V41.8046L62.7059 43H62.6661ZM62.7075 38.2185L63.9028 37.0232H65.0982C67.2233 37.0232 68.2859 36.0934 68.2859 34.234V28.5361H72.6689V34.234C72.6689 36.0934 73.5986 37.0232 75.4581 37.0232H77.0519V41.8046L75.8565 43C73.7314 43 72.111 42.575 70.9954 41.7249C69.9062 40.8483 69.1757 39.4803 68.8038 37.6208H68.5648C68.1929 39.4803 67.5554 40.8483 66.6522 41.7249C65.749 42.575 64.4341 43 62.7075 43V38.2185ZM70.0789 25.3484C69.3883 25.3484 68.8171 25.1359 68.3655 24.7109C67.9405 24.2859 67.728 23.6085 67.728 22.6788C67.728 21.749 67.9405 21.0716 68.3655 20.6466C68.8171 20.2216 69.3883 20.0091 70.0789 20.0091H70.8758C71.5665 20.0091 72.1243 20.2216 72.5493 20.6466C73.0009 21.0716 73.2267 21.749 73.2267 22.6788C73.2267 23.6085 73.0009 24.2859 72.5493 24.7109C72.1243 25.1359 71.5665 25.3484 70.8758 25.3484H70.0789ZM104.987 43C104.057 43 103.167 42.8937 102.317 42.6812C101.494 42.4422 100.71 42.0171 99.9662 41.4062C98.2661 42.4687 95.8488 43 92.7143 43H75.8596V38.2185L77.055 37.0232H78.848L79.8442 35.3098V13.5143H84.6257V23.7147L84.1475 28.3767L84.4663 28.5361C85.821 27.1282 87.2687 26.1188 88.8094 25.5078C90.3501 24.8703 92.0502 24.5515 93.9097 24.5515C97.0442 24.5515 99.3951 25.4148 100.962 27.1415C102.53 28.8415 103.313 31.219 103.313 34.2738C103.313 35.2832 103.22 36.1598 103.034 36.9036C103.698 36.9833 104.349 37.0232 104.987 37.0232H106.182V41.8046L104.987 43ZM92.7143 37.0232C93.9894 37.0232 95.0386 36.9833 95.8621 36.9036C96.7121 36.7974 97.3895 36.638 97.8942 36.4255C98.4255 36.1864 98.7974 35.8676 99.0099 35.4692C99.2224 35.0707 99.3287 34.5527 99.3287 33.9152C99.3287 32.773 98.9568 31.9229 98.213 31.3651C97.4692 30.8073 96.234 30.5283 94.5074 30.5283H93.312C92.1166 30.5283 91.0674 30.5815 90.1642 30.6877C89.261 30.7674 88.4641 30.9401 87.7735 31.2057C87.0828 31.4713 86.4585 31.8432 85.9007 32.3214C85.3429 32.7995 84.8116 33.4238 84.3069 34.1941L82.5935 36.7841L82.7131 37.0232H92.7143ZM114.966 34.234C114.966 35.3762 115.285 36.1598 115.922 36.5849L117.675 33.5566C118.605 31.9362 119.548 30.5549 120.504 29.4127C121.487 28.2704 122.51 27.3407 123.573 26.6235C124.635 25.9062 125.751 25.3883 126.92 25.0695C128.115 24.7242 129.39 24.5515 130.745 24.5515C133.879 24.5515 136.23 25.4148 137.797 27.1415C139.365 28.8415 140.148 31.219 140.148 34.2738C140.148 37.2755 139.298 39.4803 137.598 40.8882C135.898 42.2961 133.215 43 129.549 43H118.154C116.028 43 114.408 42.575 113.292 41.7249C112.203 40.8483 111.473 39.4803 111.101 37.6208H110.862C110.49 39.4803 109.852 40.8483 108.949 41.7249C108.046 42.575 106.731 43 105.004 43V38.2185L106.2 37.0232H107.395C109.52 37.0232 110.583 36.0934 110.583 34.234V31.7237H114.966V34.234ZM129.549 37.0232C130.824 37.0232 131.874 36.9833 132.697 36.9036C133.547 36.7974 134.225 36.638 134.729 36.4255C135.261 36.1864 135.632 35.8676 135.845 35.4692C136.057 35.0707 136.164 34.5527 136.164 33.9152C136.164 32.773 135.792 31.9229 135.048 31.3651C134.304 30.8073 133.069 30.5283 131.342 30.5283H130.147C128.952 30.5283 127.902 30.5815 126.999 30.6877C126.096 30.7674 125.299 30.9401 124.609 31.2057C123.918 31.4713 123.294 31.8432 122.736 32.3214C122.178 32.7995 121.647 33.4238 121.142 34.1941L119.429 36.7841L119.548 37.0232H129.549ZM143.126 37.0232L149.979 30.8471L140.735 22.1608L144.201 18.4153L153.764 27.4204C154.216 26.9157 154.535 26.3711 154.721 25.7867C154.933 25.1757 155.039 24.3788 155.039 23.396V13.5143H159.821V23.396C159.821 24.0866 159.754 24.7242 159.622 25.3086C159.515 25.893 159.329 26.4508 159.064 26.9821C158.825 27.5134 158.493 28.0313 158.068 28.5361C157.643 29.0142 157.138 29.5189 156.553 30.0502L157.948 31.3252C158.506 31.8565 158.984 32.3612 159.382 32.8394C159.781 33.3175 160.1 33.7957 160.339 34.2738C160.578 34.752 160.751 35.2567 160.857 35.788C160.963 36.2927 161.016 36.8372 161.016 37.4216C161.016 38.2185 160.87 38.9623 160.578 39.653C160.312 40.3171 159.927 40.9015 159.422 41.4062C158.944 41.9109 158.373 42.3093 157.709 42.6015C157.045 42.8672 156.314 43 155.517 43H143.126V37.0232ZM152.649 33.3175L148.425 36.8638L148.465 37.0232H156.633L152.649 33.3175ZM164.818 13.5143H169.599V43H164.818V13.5143ZM182.412 37.7802H185.002L185.082 37.6208C184.63 36.8505 184.312 36.1731 184.126 35.5887C183.94 35.0043 183.847 34.3269 183.847 33.5566C183.847 32.6534 184.019 31.8167 184.365 31.0463C184.71 30.2494 185.188 29.5588 185.799 28.9744C186.437 28.39 187.18 27.9384 188.031 27.6196C188.881 27.2743 189.824 27.1016 190.86 27.1016C192.321 27.1016 193.675 27.4469 194.924 28.1376C196.199 28.8283 197.235 29.7978 198.032 31.0463L193.768 34.6723C192.945 33.5035 191.842 32.9191 190.461 32.9191C189.824 32.9191 189.292 33.0917 188.867 33.4371C188.442 33.7558 188.23 34.1808 188.23 34.7121C188.23 35.4028 188.641 35.9872 189.465 36.4653C190.288 36.9435 191.471 37.1825 193.011 37.1825H198.669V43H182.412V37.7802ZM209.986 43C207.303 43 205.311 42.3625 204.009 41.0874C202.707 39.8124 202.056 37.7404 202.056 34.8715V13.5143H206.838V34.0746C206.838 35.27 207.077 36.0669 207.555 36.4653C208.033 36.8372 208.857 37.0232 210.026 37.0232H211.221V41.8046L210.026 43H209.986ZM210.027 38.2185L211.223 37.0232H218.076C218.979 37.0232 219.603 36.9302 219.949 36.7442C220.294 36.5317 220.467 36.1598 220.467 35.6286C220.467 35.1504 220.307 34.7387 219.989 34.3934C219.67 34.048 219.019 33.6097 218.036 33.0785L211.621 29.6119V19.0927L230.747 13.0361V18.2957L213.613 23.6749V23.914L218.036 26.3844C219.231 27.0485 220.241 27.6993 221.064 28.3368C221.888 28.9478 222.539 29.5853 223.017 30.2494C223.522 30.9135 223.88 31.6174 224.093 32.3612C224.332 33.0785 224.451 33.8886 224.451 34.7918C224.451 37.6076 223.827 39.6795 222.579 41.0077C221.357 42.3359 219.324 43 216.482 43H210.027V38.2185ZM233.292 43C231.433 43 230.012 42.5351 229.029 41.6054C228.046 40.6757 227.555 39.1881 227.555 37.1427V34.473H232.137V37.0232H237.596C238.472 37.0232 239.11 36.8903 239.508 36.6247C239.933 36.3591 240.146 35.9208 240.146 35.3098C240.146 35.0176 240.079 34.6723 239.947 34.2738C239.84 33.8754 239.721 33.4769 239.588 33.0785L236.081 22.9975L241.182 21.2045L245.206 32.7198C245.498 33.5964 245.791 34.3137 246.083 34.8715C246.375 35.4293 246.68 35.8676 246.999 36.1864C247.345 36.5052 247.703 36.731 248.075 36.8638C248.473 36.97 248.938 37.0232 249.47 37.0232H250.665V41.8046L249.47 43C248.354 43 247.384 42.9203 246.561 42.7609C245.737 42.6015 244.994 42.3093 244.33 41.8843C243.692 41.4593 243.108 40.9015 242.576 40.2108C242.072 39.5202 241.58 38.6303 241.102 37.5412L240.943 37.6208C240.783 38.5771 240.557 39.4006 240.265 40.0913C240 40.7819 239.654 41.3398 239.229 41.7648C238.804 42.1898 238.286 42.5086 237.675 42.7211C237.064 42.907 236.334 43 235.484 43H233.292ZM237.835 18.8934C237.144 18.8934 236.573 18.6809 236.121 18.2559C235.696 17.8309 235.484 17.1535 235.484 16.2238C235.484 15.294 235.696 14.6167 236.121 14.1916C236.573 13.7666 237.144 13.5541 237.835 13.5541H238.632C239.322 13.5541 239.88 13.7666 240.305 14.1916C240.757 14.6167 240.983 15.294 240.983 16.2238C240.983 17.1535 240.757 17.8309 240.305 18.2559C239.88 18.6809 239.322 18.8934 238.632 18.8934H237.835ZM249.484 38.2185L250.679 37.0232H252.432C253.442 37.0232 254.106 36.8372 254.424 36.4653C254.77 36.0669 254.942 35.4559 254.942 34.6324V13.5143H259.724V34.6324C259.724 37.4747 259.166 39.5733 258.05 40.928C256.961 42.2828 255.089 42.9734 252.432 43H249.484V38.2185ZM264.51 13.5143H269.291V43H264.51V13.5143ZM319.2 43.4781C317.314 43.4781 315.893 43.0266 314.937 42.1234C313.981 41.2202 313.33 39.8256 312.984 37.9396H312.745C312.533 39.6928 312.002 40.9812 311.152 41.8046C310.301 42.6015 309.199 43 307.844 43H306.41C306.118 46.3205 305.029 48.751 303.143 50.2917C301.283 51.8324 298.534 52.6028 294.895 52.6028C290.804 52.6028 287.709 51.6465 285.61 49.7339C283.539 47.8213 282.503 45.1384 282.503 41.6851C282.503 40.5694 282.662 39.3608 282.981 38.0591C283.326 36.7575 283.791 35.4293 284.375 34.0746L288.2 35.1903C287.669 36.2794 287.244 37.3154 286.925 38.2982C286.633 39.2545 286.487 40.1178 286.487 40.8882C286.487 42.5351 287.085 43.8235 288.28 44.7532C289.476 45.6829 291.149 46.1478 293.301 46.1478H296.488C298.481 46.1478 299.942 45.7228 300.871 44.8727C301.801 44.0493 302.266 42.7344 302.266 40.928C302.266 40.3171 302.2 39.5998 302.067 38.7764C301.934 37.9529 301.775 37.1161 301.589 36.2661L300.792 32.5605L305.095 31.7237L305.852 35.3895L306.131 37.0232H309.279C310.474 37.0232 311.298 36.8239 311.749 36.4255C312.227 36.0005 312.466 35.27 312.466 34.234V31.7237H316.849V34.234C316.849 35.3496 317.035 36.1598 317.407 36.6646C317.806 37.1693 318.337 37.4216 319.001 37.4216H319.4C319.957 37.4216 320.409 37.2224 320.754 36.8239C321.1 36.3989 321.272 35.7348 321.272 34.8317C321.272 34.4598 321.232 33.9949 321.153 33.4371C321.073 32.8527 320.967 32.1487 320.834 31.3252L320.475 29.2931L324.819 28.5759L325.137 30.608C325.27 31.3784 325.363 32.1089 325.416 32.7995C325.469 33.4636 325.496 34.141 325.496 34.8317C325.496 37.8068 324.978 39.9983 323.942 41.4062C322.933 42.7875 321.352 43.4781 319.2 43.4781ZM324.283 46.5861H325.877C328.294 46.5861 330.06 46.0947 331.176 45.1118C332.318 44.129 332.876 42.4953 332.85 40.2108C332.85 39.5998 332.81 38.9623 332.73 38.2982C332.65 37.6076 332.544 36.8771 332.411 36.1067L331.575 30.8073L335.918 30.1299L336.515 33.8355C336.728 35.1106 336.887 36.2927 336.994 37.3818C337.126 38.4443 337.193 39.3209 337.193 40.0116C337.193 41.9242 336.954 43.6508 336.476 45.1915C335.997 46.7322 335.28 48.0471 334.324 49.1362C333.368 50.2519 332.185 51.1019 330.778 51.6863C329.37 52.2707 327.749 52.5629 325.916 52.5629H324.283V46.5861ZM339.776 46.5861H342.326C344.85 46.5861 346.868 46.2673 348.383 45.6298C349.923 44.9923 351.012 44.1157 351.65 43H347.028C344.876 43 343.189 42.3758 341.967 41.1273C340.772 39.8522 340.174 38.0857 340.174 35.8278C340.174 34.4465 340.374 33.1714 340.772 32.0026C341.197 30.8073 341.768 29.7845 342.485 28.9345C343.229 28.0579 344.092 27.3805 345.075 26.9024C346.085 26.3977 347.174 26.1453 348.343 26.1453C350.76 26.1453 352.673 27.1016 354.08 29.0142C355.488 30.9268 356.259 33.5964 356.391 37.0232H358.424V41.8046L357.228 43H355.873C355.13 46.0548 353.655 48.4057 351.451 50.0527C349.272 51.7262 346.364 52.5629 342.724 52.5629H339.776V46.5861ZM344.159 35.0309C344.159 35.7481 344.451 36.2661 345.035 36.5849C345.62 36.8771 346.417 37.0232 347.426 37.0232H352.407V36.9036C352.407 35.4692 351.969 34.3137 351.092 33.4371C350.242 32.5605 349.153 32.1222 347.825 32.1222C346.789 32.1222 345.912 32.4011 345.195 32.9589C344.504 33.4902 344.159 34.1808 344.159 35.0309ZM357.23 38.2185L358.425 37.0232H365.279C366.182 37.0232 366.806 36.9302 367.152 36.7442C367.497 36.5317 367.67 36.1598 367.67 35.6286C367.67 35.1504 367.51 34.7387 367.192 34.3934C366.873 34.048 366.222 33.6097 365.239 33.0785L358.824 29.6119V19.0927L377.95 13.0361V18.2957L360.816 23.6749V23.914L365.239 26.3844C366.434 27.0485 367.444 27.6993 368.267 28.3368C369.091 28.9478 369.742 29.5853 370.22 30.2494C370.724 30.9135 371.083 31.6174 371.296 32.3612C371.535 33.0785 371.654 33.8886 371.654 34.7918C371.654 37.6076 371.03 39.6795 369.781 41.0077C368.56 42.3359 366.527 43 363.685 43H357.23V38.2185Z" fill="white"/>
<path d="M431.468 34.6719C432.278 33.8615 432.278 32.5475 431.468 31.737L418.26 18.5299C417.45 17.7195 416.136 17.7195 415.326 18.5299C414.515 19.3404 414.515 20.6544 415.326 21.4649L427.065 33.2045L415.326 44.9441C414.515 45.7545 414.515 47.0685 415.326 47.879C416.136 48.6894 417.45 48.6894 418.26 47.879L431.468 34.6719ZM428.34 33.2045L428.34 35.2798L430 35.2798L430 33.2045L430 31.1292L428.34 31.1292L428.34 33.2045Z" fill="white"/>
</svg>
