<svg width="46" height="46" viewBox="0 0 46 46" fill="none" xmlns="http://www.w3.org/2000/svg">
<circle cx="23" cy="23" r="22.5" transform="rotate(-180 23 23)" fill="white" stroke="#807782"/>
<path opacity="0.5" d="M26.7071 23.7071C27.0976 23.3166 27.0976 22.6834 26.7071 22.2929L20.3431 15.9289C19.9526 15.5384 19.3195 15.5384 18.9289 15.9289C18.5384 16.3195 18.5384 16.9526 18.9289 17.3431L24.5858 23L18.9289 28.6569C18.5384 29.0474 18.5384 29.6805 18.9289 30.0711C19.3195 30.4616 19.9526 30.4616 20.3431 30.0711L26.7071 23.7071ZM25 23L25 24L26 24L26 23L26 22L25 22L25 23Z" fill="black"/>
</svg>
